<?xml version="1.0" encoding="UTF-8" standalone="no"?>
<svg
   xmlns:dc="http://purl.org/dc/elements/1.1/"
   xmlns:cc="http://creativecommons.org/ns#"
   xmlns:rdf="http://www.w3.org/1999/02/22-rdf-syntax-ns#"
   xmlns:svg="http://www.w3.org/2000/svg"
   xmlns="http://www.w3.org/2000/svg"
   xmlns:sodipodi="http://sodipodi.sourceforge.net/DTD/sodipodi-0.dtd"
   xmlns:inkscape="http://www.inkscape.org/namespaces/inkscape"
   enable-background="new 0 0 32 32"
   height="24"
   id="_x3C_Layer_x3E_"
   version="1.1"
   viewBox="0 0 24 24"
   width="24"
   xml:space="preserve"
   sodipodi:docname="clock.svg"
   inkscape:version="1.0.1 (3bc2e813f5, 2020-09-07)"
   inkscape:export-filename="/home/henriquecouto/Projects/clone-bigsur-preview/src/assets/clock.png"
   inkscape:export-xdpi="96"
   inkscape:export-ydpi="96"><metadata
     id="metadata104"><rdf:RDF><cc:Work
         rdf:about=""><dc:format>image/svg+xml</dc:format><dc:type
           rdf:resource="http://purl.org/dc/dcmitype/StillImage" /><dc:title /></cc:Work></rdf:RDF></metadata><defs
     id="defs102" /><sodipodi:namedview
     pagecolor="#ffffff"
     bordercolor="#666666"
     borderopacity="1"
     objecttolerance="10"
     gridtolerance="10"
     guidetolerance="10"
     inkscape:pageopacity="0"
     inkscape:pageshadow="2"
     inkscape:window-width="1904"
     inkscape:window-height="1000"
     id="namedview100"
     showgrid="false"
     inkscape:zoom="26.9375"
     inkscape:cx="15.655524"
     inkscape:cy="10.08977"
     inkscape:window-x="8"
     inkscape:window-y="35"
     inkscape:window-maximized="0"
     inkscape:current-layer="_x3C_Layer_x3E_"
     fit-margin-top="0"
     fit-margin-left="0"
     fit-margin-right="0"
     fit-margin-bottom="0"
     inkscape:document-rotation="0" /><g
     id="g1147"
     transform="translate(-3.875315,-4.0388895)"><text
       xml:space="preserve"
       style="font-style:normal;font-weight:normal;font-size:4.16907px;line-height:1.25;font-family:sans-serif;fill:#263238;fill-opacity:1;stroke:none;stroke-width:0.781701"
       x="5.0312581"
       y="17.419819"
       id="text979-4-9-6"><tspan
         sodipodi:role="line"
         id="tspan977-0-4-9"
         x="5.0312581"
         y="17.419819"
         style="font-style:normal;font-variant:normal;font-weight:normal;font-stretch:normal;font-size:4.16907px;font-family:'Carter One';-inkscape-font-specification:'Carter One';fill:#263238;fill-opacity:1;stroke-width:0.781701">9</tspan></text><text
       xml:space="preserve"
       style="font-style:normal;font-weight:normal;font-size:4.16907px;line-height:1.25;font-family:sans-serif;fill:#263238;fill-opacity:1;stroke:none;stroke-width:0.781701"
       x="14.568918"
       y="27.007122"
       id="text979-4-9"><tspan
         sodipodi:role="line"
         id="tspan977-0-4"
         x="14.568918"
         y="27.007122"
         style="font-style:normal;font-variant:normal;font-weight:normal;font-stretch:normal;font-size:4.16907px;font-family:'Carter One';-inkscape-font-specification:'Carter One';fill:#263238;fill-opacity:1;stroke-width:0.781701">6</tspan></text><text
       xml:space="preserve"
       style="font-style:normal;font-weight:normal;font-size:4.16907px;line-height:1.25;font-family:sans-serif;fill:#263238;fill-opacity:1;stroke:none;stroke-width:0.781701"
       x="24.307093"
       y="17.469694"
       id="text979-4"><tspan
         sodipodi:role="line"
         id="tspan977-0"
         x="24.307093"
         y="17.469694"
         style="font-style:normal;font-variant:normal;font-weight:normal;font-stretch:normal;font-size:4.16907px;font-family:'Carter One';-inkscape-font-specification:'Carter One';fill:#263238;fill-opacity:1;stroke-width:0.781701">3</tspan></text><text
       xml:space="preserve"
       style="font-style:normal;font-weight:normal;font-size:4.16907px;line-height:1.25;font-family:sans-serif;fill:#263238;fill-opacity:1;stroke:none;stroke-width:0.781701"
       x="13.99282"
       y="8.0061054"
       id="text979"><tspan
         sodipodi:role="line"
         id="tspan977"
         x="13.99282"
         y="8.0061054"
         style="font-style:normal;font-variant:normal;font-weight:normal;font-stretch:normal;font-size:4.16907px;font-family:'Carter One';-inkscape-font-specification:'Carter One';fill:#263238;fill-opacity:1;stroke-width:0.781701">12</tspan></text><g
       id="g12"><path
         d="m 20.75,8.27 c -0.13,0 -0.26,-0.05 -0.351,-0.14 -0.1,-0.1 -0.149,-0.23 -0.149,-0.36 0,-0.13 0.05,-0.26 0.149,-0.35 0.19,-0.19 0.521,-0.19 0.7,0 0.101,0.09 0.15,0.22 0.15,0.35 0,0.13 -0.049,0.26 -0.149,0.35 -0.09,0.1 -0.22,0.15 -0.35,0.15 z"
         fill="#263238"
         id="path10" /></g><g
       id="g16"><path
         d="m 11.25,24.729 c -0.13,0 -0.26,-0.06 -0.351,-0.149 -0.1,-0.101 -0.149,-0.23 -0.149,-0.351 0,-0.13 0.05,-0.26 0.14,-0.359 0.19,-0.181 0.53,-0.181 0.71,0 0.101,0.1 0.15,0.229 0.15,0.359 0,0.12 -0.05,0.25 -0.141,0.351 -0.099,0.09 -0.229,0.149 -0.359,0.149 z"
         fill="#263238"
         id="path14" /></g><g
       id="g22"><path
         d="m 24.229,11.75 c -0.13,0 -0.26,-0.05 -0.35,-0.141 -0.1,-0.1 -0.15,-0.229 -0.15,-0.359 0,-0.13 0.051,-0.26 0.141,-0.351 0.199,-0.199 0.529,-0.189 0.71,0 0.09,0.091 0.149,0.221 0.149,0.351 0,0.13 -0.05,0.26 -0.149,0.35 -0.09,0.1 -0.221,0.15 -0.351,0.15 z"
         fill="#263238"
         id="path20" /></g><g
       id="g26"><path
         d="M 7.77,21.25 C 7.64,21.25 7.52,21.2 7.42,21.109 7.319,21 7.27,20.87 7.27,20.75 c 0,-0.13 0.05,-0.25 0.141,-0.351 0.22,-0.199 0.529,-0.189 0.72,0 0.09,0.091 0.14,0.221 0.14,0.351 0,0.13 -0.05,0.26 -0.14,0.35 C 8.03,21.2 7.91,21.25 7.77,21.25 Z"
         fill="#263238"
         id="path24" /></g><g
       id="g42"><path
         d="m 24.229,21.25 c -0.13,0 -0.26,-0.05 -0.359,-0.141 -0.09,-0.1 -0.141,-0.229 -0.141,-0.359 0,-0.13 0.051,-0.26 0.141,-0.351 0.199,-0.199 0.529,-0.189 0.71,0 0.09,0.091 0.149,0.221 0.149,0.351 0,0.13 -0.05,0.26 -0.149,0.35 -0.09,0.1 -0.221,0.15 -0.351,0.15 z"
         fill="#263238"
         id="path40" /></g><g
       id="g46"><path
         d="M 7.77,11.75 C 7.64,11.75 7.52,11.7 7.42,11.609 7.319,11.5 7.27,11.37 7.27,11.25 c 0,-0.13 0.05,-0.25 0.141,-0.351 0.22,-0.199 0.529,-0.189 0.72,0 0.09,0.091 0.14,0.221 0.14,0.351 0,0.13 -0.05,0.26 -0.14,0.35 -0.101,0.1 -0.232,0.15 -0.361,0.15 z"
         fill="#263238"
         id="path44" /></g><g
       id="g52"><path
         d="m 20.75,24.729 c -0.13,0 -0.26,-0.05 -0.351,-0.14 -0.1,-0.11 -0.149,-0.23 -0.149,-0.36 0,-0.13 0.05,-0.26 0.14,-0.359 0.2,-0.19 0.521,-0.181 0.71,0 0.101,0.1 0.15,0.229 0.15,0.359 0,0.12 -0.05,0.25 -0.141,0.351 -0.099,0.1 -0.229,0.149 -0.359,0.149 z"
         fill="#263238"
         id="path50" /></g><g
       id="g56"><path
         d="M 11.25,8.27 C 11.12,8.27 10.99,8.22 10.899,8.121 10.8,8.03 10.75,7.899 10.75,7.77 c 0,-0.129 0.05,-0.26 0.149,-0.35 0.181,-0.19 0.511,-0.19 0.7,-0.01 0.101,0.1 0.15,0.229 0.15,0.359 0,0.13 -0.049,0.261 -0.149,0.351 -0.1,0.1 -0.22,0.15 -0.35,0.15 z"
         fill="#263238"
         id="path54" /></g></g></svg>
